<svg xmlns="http://www.w3.org/2000/svg" width="512" height="512" viewBox="0 0 512 512">
  <rect width="512" height="512" rx="64" fill="#000000"/>
  <!-- Sun outer glow -->
  <circle cx="256" cy="256" r="140" fill="none" stroke="#ffffff" stroke-width="2" opacity="0.15"/>
  <circle cx="256" cy="256" r="120" fill="none" stroke="#ffffff" stroke-width="1.5" opacity="0.2"/>
  <!-- Sun body -->
  <circle cx="256" cy="256" r="80" fill="#1a1a2e" stroke="#ffffff" stroke-width="3"/>
  <!-- Flare rays -->
  <g stroke="#ffffff" stroke-width="3" stroke-linecap="round" opacity="0.8">
    <line x1="256" y1="140" x2="256" y2="100"/>
    <line x1="256" y1="372" x2="256" y2="412"/>
    <line x1="140" y1="256" x2="100" y2="256"/>
    <line x1="372" y1="256" x2="412" y2="256"/>
    <line x1="174" y1="174" x2="146" y2="146"/>
    <line x1="338" y1="338" x2="366" y2="366"/>
    <line x1="174" y1="338" x2="146" y2="366"/>
    <line x1="338" y1="174" x2="366" y2="146"/>
  </g>
  <!-- Flare highlight -->
  <path d="M236,200 Q256,180 276,200 Q280,240 256,270 Q232,240 236,200Z" fill="#ffffff" opacity="0.25"/>
  <!-- Bright core -->
  <circle cx="248" cy="242" r="12" fill="#ffffff" opacity="0.6"/>
  <circle cx="248" cy="242" r="6" fill="#ffffff" opacity="0.9"/>
  <!-- Text -->
  <text x="256" y="460" text-anchor="middle" fill="#ffffff" font-family="sans-serif" font-size="28" font-weight="700" letter-spacing="4" opacity="0.6">STELLA</text>
</svg>
